<svg xmlns="http://www.w3.org/2000/svg" viewBox="0 0 1200 490" role="img" aria-label="El historial permanece. El contexto se selecciona."><title>El historial permanece. El contexto se selecciona.</title><defs><linearGradient id="bg" x1="0" x2="1" y1="0" y2="1"><stop stop-color="#102036"/><stop offset="1" stop-color="#182e45"/></linearGradient><marker id="arrow" viewBox="0 0 10 10" refX="9" refY="5" markerWidth="6" markerHeight="6" orient="auto-start-reverse"><path d="M 0 0 L 10 5 L 0 10 z" fill="#5ee0c0"/></marker></defs><rect width="1200" height="490" rx="20" fill="url(#bg)"/><g font-family="Arial, sans-serif"><text x="38" y="47" font-size="28" font-weight="700" fill="#e8edf7">El historial permanece. El contexto se selecciona.</text><text x="38" y="77" font-size="13" font-weight="400" fill="#a5b9cc">MAPA CONCEPTUAL · LA INTEGRACIÓN DEPENDE DEL HOST</text><rect x="38" y="119" width="247" height="114" rx="14" fill="#233d54" stroke="#557086"/><text x="54" y="162" font-size="19" font-weight="700" fill="#5ee0c0">Historial autorizado</text><text x="54" y="198" font-size="16" font-weight="400" fill="#e8edf7">Texto · rol · fecha</text><path d="M 292 174 L 320 174" stroke="#5ee0c0" stroke-width="3" marker-end="url(#arrow)"/><rect x="331" y="119" width="247" height="114" rx="14" fill="#233d54" stroke="#557086"/><text x="347" y="162" font-size="19" font-weight="700" fill="#5ee0c0">Catálogo temporal</text><text x="347" y="198" font-size="16" font-weight="400" fill="#e8edf7">Localiza el original</text><path d="M 585 174 L 613 174" stroke="#5ee0c0" stroke-width="3" marker-end="url(#arrow)"/><rect x="624" y="119" width="247" height="114" rx="14" fill="#233d54" stroke="#557086"/><text x="640" y="162" font-size="19" font-weight="700" fill="#5ee0c0">Contexto necesario</text><text x="640" y="198" font-size="16" font-weight="400" fill="#e8edf7">Acotado · verificado</text><path d="M 878 174 L 906 174" stroke="#5ee0c0" stroke-width="3" marker-end="url(#arrow)"/><rect x="917" y="119" width="247" height="114" rx="14" fill="#233d54" stroke="#557086"/><text x="933" y="162" font-size="19" font-weight="700" fill="#5ee0c0">Modelo de IA</text><text x="933" y="198" font-size="16" font-weight="400" fill="#e8edf7">Su propio razonamiento</text><path d="M 455 237 L 455 267 L 275 267 L 275 292 M 455 267 L 880 267 L 880 292" fill="none" stroke="#5ee0c0" stroke-width="2"/><rect x="100" y="295" width="413" height="65" rx="13" fill="#233d54" stroke="#557086"/><text x="119" y="336" font-size="20" font-weight="600" fill="#e8edf7">Buffer: asuntos recientes</text><rect x="686" y="295" width="413" height="65" rx="13" fill="#233d54" stroke="#557086"/><text x="705" y="336" font-size="20" font-weight="600" fill="#e8edf7">Pin: objetivo y hora explícitos</text><rect x="100" y="397" width="1000" height="51" rx="12" fill="#143f46"/><text x="121" y="430" font-size="20" font-weight="400" fill="#9aefd9">Controles compartidos · avisos desactivados al inicio</text></g></svg>
